<svg width="21" height="21" viewBox="0 0 21 21" fill="none" xmlns="http://www.w3.org/2000/svg">
<path d="M18.2 14.875V13.5625C18.2 12.3375 16.975 11.375 15.75 11.375C14.525 11.375 13.3 12.3375 13.3 13.5625V14.875C12.775 14.875 12.25 15.4 12.25 15.925V18.9875C12.25 19.6 12.775 20.125 13.3 20.125H18.1125C18.725 20.125 19.25 19.6 19.25 19.075V16.0125C19.25 15.4 18.725 14.875 18.2 14.875ZM17.0625 14.875H14.4375V13.5625C14.4375 12.8625 15.05 12.425 15.75 12.425C16.45 12.425 17.0625 12.8625 17.0625 13.5625V14.875ZM13.125 10.5C12.3375 11.1125 11.8125 11.9 11.6375 12.8625C11.2875 13.0375 10.9375 13.125 10.5 13.125C9.0125 13.125 7.875 11.9875 7.875 10.5C7.875 9.0125 9.0125 7.875 10.5 7.875C11.9875 7.875 13.125 9.0125 13.125 10.5ZM10.5 17.0625C6.125 17.0625 2.3625 14.35 0.875 10.5C2.3625 6.65 6.125 3.9375 10.5 3.9375C14.875 3.9375 18.6375 6.65 20.125 10.5C19.95 10.9375 19.6875 11.375 19.5125 11.8125C19.1625 11.2 18.725 10.675 18.1125 10.325C16.625 7.4375 13.7375 5.6875 10.5 5.6875C7.175 5.6875 4.2 7.525 2.8 10.5C4.2875 13.475 7.2625 15.3125 10.5 15.3125H10.5875C10.5 15.4875 10.5 15.75 10.5 15.925V17.0625Z" fill="#7F7E83"/>
</svg>
